<svg version="1.1" id="Layer_1" xmlns="http://www.w3.org/2000/svg" x="0px" y="0px" viewBox="0 0 94 38" enable-background="new 0 0 94 38" xml:space="preserve">
<g>
  <path data-path="fill" fill="#FFF" d="M92.2,15.6c0-0.2,0-0.4-0.1-0.6c0,0-0.1-0.1-0.1-0.1c0,0-0.1-0.1-0.1-0.1c-0.1-0.4-0.2-0.7-0.3-1
    c0-0.1-0.1-0.2-0.1-0.4c0-0.1,0-0.3-0.1-0.4c0-0.1,0-0.1,0-0.2c0-0.1,0-0.1,0-0.2c0-0.1,0-0.2,0-0.2c0-0.2,0-0.3-0.1-0.5
    c0-0.2-0.1-0.3-0.2-0.5c-0.1-0.2-0.2-0.5-0.2-0.8c0.2-0.4,0-0.8-0.2-1.1c0-0.1-0.1-0.1-0.1-0.2c0-0.1,0-0.2,0-0.4c0,0,0-0.1,0-0.1
    c0.1-0.3,0-0.7-0.1-1.2c0-0.1-0.1-0.2-0.1-0.3c-0.1-0.1-0.1-0.2-0.1-0.3c0-0.1,0-0.2,0-0.2c0-0.3,0-0.5-0.1-0.8
    c-0.2-0.4-0.5-0.7-0.7-1.1c-0.2-0.2-0.3-0.4-0.5-0.7c-0.2-0.2-0.3-0.4-0.5-0.4c0,0,0,0,0,0C88.1,4,87.7,4,87.3,4
    c-0.3,0-0.7,0-0.9,0.1c-0.3,0-0.4,0.4-0.5,0.6l0,0c-0.2,0.4,0,0.8,0.1,1.1c0.2,0.4,0.4,0.8,0.6,1.2c0.1,0.2,0.3,0.3,0.5,0.4
    c0.2,0.1,0.4,0.3,0.5,0.5c0,0,0,0.1,0,0.1c0,0,0,0.1,0,0.1l0,0c-0.1,0.2-0.1,0.3-0.1,0.4c0,0.1,0,0.2-0.1,0.3l0,0l0,0.4l0,0
    c0,0,0,0.1,0,0.1c0,0.1,0,0.1,0,0.2c0,0,0,0-0.1,0.1c-0.1,0-0.1,0-0.2,0c-0.3,0-0.6-0.2-0.9-0.5C86,9,85.8,8.9,85.6,8.8
    c-0.1,0-0.1,0-0.2,0c-0.1,0-0.1,0-0.1,0l0,0c-0.5-0.3-1.2-0.7-1.5-1.4l0,0l-0.1,0c-0.2,0-0.3-0.1-0.5-0.2c-0.1-0.1-0.2-0.2-0.3-0.2
    C82.5,6.6,82.2,6.3,82,6c-0.1-0.1-0.2-0.2-0.3-0.3c-0.2-0.3-0.6-0.4-1.1-0.2c0,0-0.1,0-0.1,0c-0.1,0-0.2,0-0.3,0.1
    c-0.2,0.1-0.3,0.2-0.4,0.4c-0.1,0.1-0.2,0.2-0.3,0.3c0,0-0.1,0-0.1,0c0,0,0,0,0,0l-0.1,0l0,0.1c0,0.1-0.1,0.2-0.2,0.3l-0.1,0l0,0.1
    c0.1,0.2,0,0.6,0,0.9c0,0.2,0,0.3,0,0.4l0,0.1c0,0.2,0,0.5,0,0.7c0,0.1,0.1,0.2,0.1,0.3c0.1,0.3,0.4,0.9,0.4,1.2l0,0l0,0
    c0.1,0.2,0.2,0.4,0.2,0.7c0.1,0.2,0,0.4,0,0.7c-0.1,0.2-0.1,0.5-0.1,0.7c0,0.2,0.2,0.4,0.3,0.5c0.1,0.1,0.2,0.2,0.2,0.2l0,0.1
    c0.1,0.5,0.3,1.1-0.1,1.5l0,0l0,0.2c0,0.2-0.1,0.4,0,0.5c0,0.3,0.2,0.7,0.3,1l0.1,0.2c0.2,0.5,0.3,0.8,0.6,1c0,0,0,0,0.1,0.1
    l0.1,0.1l0,0c0.1,0.1,0.3,0.1,0.4,0.2c0.1,0.1,0.2,0.1,0.3,0.2c0.3,0.2,0.8,0.2,1.1,0c0.2-0.1,0.2-0.4,0.3-0.6c0-0.1,0-0.3,0.1-0.4
    l0,0v0c0,0,0-0.1,0-0.1c0,0,0,0,0-0.1c0.3-0.4,0.4-0.9,0.5-1.5c0-0.1,0-0.3-0.1-0.4c0-0.1,0-0.1,0-0.2c0-0.2,0-0.3,0-0.5
    c0-0.2,0-0.4,0-0.7c0-0.2-0.1-0.3-0.1-0.4c-0.1-0.1-0.1-0.2-0.1-0.3V13c0-0.2,0.1-0.4,0.2-0.4c0.1,0,0.2-0.1,0.3-0.1
    c0,0,0.1,0,0.1,0c0,0,0.1,0.1,0.1,0.1c0,0.1,0.1,0.1,0.1,0.1c0.6,0.2,1.3,0.5,1.8,1l0,0l0,0c0,0,0,0,0,0c0,0,0.1,0,0.1,0
    c0.2,0.1,0.3,0.3,0.3,0.5c0.1,0.2,0.2,0.4,0.4,0.6c0.5,0.3,0.8,0.7,0.9,1.1c0.1,0.2,0.3,0.2,0.4,0.2c0,0,0.1,0,0.1,0l0,0
    c0,0,0.1,0,0.1,0c0,0,0.1,0,0.1,0c0,0,0,0,0.1,0c0,0,0,0,0,0c0,0,0,0,0,0.1l0,0.1l0,0c0.3,0.2,0.5,0.6,0.5,0.9l0,0
    c0,0.1,0.1,0.1,0.1,0.1c0,0,0.1,0,0.1,0.1c0,0.1,0.1,0.2,0.1,0.3c0,0.2,0.1,0.3,0.2,0.5c0.1,0.2,0.3,0.6,0.7,0.6c0,0,0.1,0,0.1,0
    c0.2,0,0.3-0.1,0.4-0.1c0,0,0.1,0,0.1-0.1c0.1,0,0.2,0,0.3,0c0.1,0,0.1,0,0.2,0c0.1,0,0.2,0,0.3-0.1c0.2-0.1,0.3-0.3,0.3-0.4
    c0.1-0.2,0.2-0.4,0.4-0.4l0,0l0,0c0.2-0.4,0.2-0.9-0.1-1.6C92.2,16.1,92.2,15.8,92.2,15.6z"></path>
  <path data-path="fill" fill="#FFF" d="M31.5,19.1L31.5,19.1c0,0-0.3-0.8-0.3-1c-0.1-0.2-0.3-0.9-0.3-1.1l-0.2-0.6l0,0c0,0-0.1-0.1-0.1-0.3
    c-0.1-0.2-0.2-0.5-0.5-0.9c-0.1-0.1-0.1-0.2-0.2-0.2c-0.1-0.1-0.1-0.2-0.2-0.2c-0.1-0.1-0.2-0.2-0.4-0.4c-0.4-0.4-0.8-0.8-1.4-1.2
    l0,0L26.5,13l-0.2,0l0,0c-0.2,0-0.4,0.1-0.6,0.1c-0.3,0-0.7,0-0.9,0.2c-0.1,0.1-0.2,0.1-0.4,0.1c-0.1,0-0.1,0-0.2,0
    c-0.1,0-0.2,0-0.2,0c-0.2,0-0.4,0-0.6,0.2c-0.4,0.3-0.6,0.4-1,0.5c-0.1,0-0.3,0.1-0.4,0.2c-0.1,0.1-0.3,0.2-0.4,0.2
    c-0.7,0.1-0.9,0.3-1.6,0.7c-0.1,0.1-0.1,0.2-0.2,0.3l0,0.1c0,0.2-0.1,0.3-0.2,0.4c-0.1,0.1-0.2,0.3-0.2,0.5c0,0.2,0,0.4-0.1,0.5
    l0,0.1c0,0.1-0.1,0.3-0.1,0.4c-0.1,0.2-0.1,0.4-0.2,0.6C19,18.2,19,18.4,19,18.6c0,0.1,0,0.2,0,0.4l0,0c-0.1,0.6-0.1,1.2-0.1,1.9
    c0,0.1,0,0.2,0,0.2c0,0.2,0,0.3,0.1,0.5c0,0.1,0.3,1.3,0.6,1.7l0.4,1l0,0.1c0.1,0.3,0.5,1.1,0.9,1.5c0.3,0.3,0.6,0.5,0.9,0.6
    c0.5,0.2,0.9,0.2,1.4,0.2c0.1,0,0.2,0,0.3,0l0.1,0c0.1,0,0.2,0,0.2,0l0.3,0c0.1,0,0.2,0,0.3,0c0.1,0,0.2,0,0.3,0
    c0.3,0,0.7,0,1.1-0.1c0.3-0.1,0.6-0.1,0.9-0.2c0.2-0.1,0.3-0.1,0.5-0.1l1.4-0.4l0,0c0.4-0.2,0.7-0.4,1-0.7c0.3-0.2,0.5-0.4,0.8-0.6
    c0.3-0.2,0.5-0.4,0.8-0.8l0.3-1l0-0.8l-0.1-1.4L31.5,19.1z M22.9,20.2c-0.1-0.2-0.1-0.3-0.1-0.5c0-0.1,0.1-0.2,0.1-0.3
    c0-0.1,0.1-0.2,0.1-0.3c0.1-0.2,0.1-0.4,0.1-0.6c0-0.2,0-0.4,0.1-0.6c0.2-0.4,0.7-0.5,1.2-0.6l0.1,0c0.1,0,0.2-0.1,0.3-0.1
    c0.3-0.1,0.6-0.1,0.9-0.1c0,0,0.1,0,0.1,0.1c0,0,0.1,0,0.1,0c0.2,0.2,0.5,0.4,0.8,0.6c0.4,0.3,0.8,0.5,1,1c0.1,0.2,0.2,0.4,0.2,0.6
    c0.1,0.3,0.1,0.6,0.3,0.8c0,0,0,0.1,0,0.1c0,0.1,0,0.2,0.1,0.3c0,0-0.1,0.1-0.1,0.2l0,0c-0.1,0.2-0.2,0.3-0.3,0.5
    c-0.3,0.5-0.6,1-1.2,1.4c-0.1,0-0.2,0.1-0.3,0.1c-0.1,0-0.3,0-0.4,0.1c-0.5,0.3-0.8,0.5-1.2,0.5c-0.1,0-0.2,0-0.3,0
    c0,0-0.1,0-0.1,0c-0.1,0-0.2,0-0.3-0.1L24.2,23c-0.1-0.1-0.3-0.2-0.5-0.3c-0.1,0-0.1-0.1-0.2-0.1l-0.4-0.4c0,0-0.1-0.1-0.1-0.1
    c0,0,0-0.1-0.1-0.1c0-0.3,0-0.7,0-1c0-0.1,0-0.2,0-0.4C23,20.5,22.9,20.3,22.9,20.2z"></path>
  <path data-path="fill" fill="#FFF" d="M18.8,22.7c-0.2-0.5-0.8-0.5-1-0.5c0,0,0,0-0.1,0c-0.3-0.1-0.8,0.2-0.8,0.2l0,0l0,0
    c-0.1,0.1-0.3,0.2-0.5,0.2c-0.1,0-0.3,0-0.5,0c-0.6-0.1-1.2-0.3-1.7-0.4c-0.6-0.2-1.1-0.4-1.7-0.4c-0.1,0-0.2-0.1-0.3-0.2
    c-0.1-0.1-0.1-0.1-0.2-0.1c-0.1-0.1-0.2-0.1-0.3-0.1c0,0-0.1,0-0.1,0c-0.3-0.1-0.7-0.3-0.9-0.5c-0.4-0.2-0.7-0.4-1.1-0.6
    c-0.2-0.1-0.4-0.2-0.5-0.3c-0.3-0.2-0.4-0.4-0.5-0.6c0-0.1,0-0.2,0-0.3c0-0.1,0-0.2,0-0.3c0,0,0-0.1,0-0.1c0-0.2-0.1-0.3,0-0.4
    c0.1-0.1,0.2-0.2,0.3-0.3c0.1-0.1,0.2-0.2,0.3-0.3c0.2-0.3,0.4-0.6,0.5-0.9c0.2-0.5,0.5-0.9,0.8-1.3c0.2-0.2,0.4-0.4,0.7-0.7
    c0.3-0.3,0.7-0.6,1-1c0.1-0.2,0.3-0.2,0.5-0.3c0.2-0.1,0.3-0.1,0.4-0.3c0.4-0.4,0.9-0.5,1.3-0.6c0.2-0.1,0.5-0.1,0.7-0.2l0,0
    c0,0,0.1-0.1,0.1-0.1c0.1-0.1,0.2-0.1,0.2-0.2l0.8-0.2c0.3,0,0.5,0,0.8,0.1c0.2,0.1,0.5,0.1,0.7,0.1c0.1,0,0.2,0,0.2,0
    c0.1,0,0.2,0,0.4,0c0.9-0.1,1.8-0.1,2.3-0.9c0.1-0.2,0.2-0.4,0.2-0.6c0.1-0.2,0.1-0.6,0-0.8c-0.1-0.1-0.1-0.2-0.2-0.3
    c-0.2-0.3-0.3-0.6-0.6-0.9c-0.1-0.2-0.3-0.2-0.5-0.2c-0.1,0-0.3,0-0.4,0.1c-0.2,0-0.4,0.1-0.6,0c-0.2,0-0.3,0-0.4,0
    c0,0-0.1,0-0.1,0c-0.3,0-0.7,0-1,0.1c-0.8,0-1.6,0.1-2.5,0.3c-0.3,0.1-0.7,0.2-0.9,0.4c-0.2,0.1-0.3,0.3-0.3,0.5
    c0,0.1-0.1,0.2-0.1,0.3c-0.1,0.1-0.2,0.2-0.4,0.2L12,10.1l-1.5,0.8c-0.2,0.2-0.4,0.3-0.5,0.5c-0.1,0.1-0.2,0.3-0.4,0.4
    c-0.1,0-0.2,0.1-0.3,0.2c-0.1,0.2-0.3,0.3-0.5,0.4c-0.2,0.1-0.4,0.3-0.5,0.5l0,0c0,0,0,0,0,0.1c0,0,0,0.1,0,0.1
    c-0.4,0.4-0.7,0.8-1,1.3l-0.1,0.2c-0.1,0.1-0.2,0.2-0.3,0.2c-0.1,0.1-0.2,0.2-0.3,0.3c-0.1,0.1-0.2,0.2-0.3,0.3
    c-0.3,0.2-0.5,0.4-0.7,0.8l0,0v0c0,0,0,0.1,0,0.2C5.1,16.6,5,17,4.8,17.4c0,0.1-0.1,0.2-0.1,0.4c0,0-0.1,0.1-0.1,0.1
    c-0.1,0.1-0.1,0.2-0.2,0.3c-0.1,0.2-0.1,0.4-0.1,0.6c0,0.2,0,1,0.1,1.2c0.1,0.3,0.4,0.9,0.5,1L6,22.3c0.1,0.1,0.2,0.2,0.3,0.3
    c0.5,0.2,0.8,0.4,1,0.6c0.1,0.1,0.5,0.6,0.8,0.7c0.1,0,0.2,0.1,0.3,0.1c0.2,0.1,0.4,0.2,0.4,0.2c0.1,0.1,0.7,0.3,0.8,0.4
    c0.1,0.1,0.2,0.2,0.4,0.3c0.4,0.2,0.8,0.2,1.2,0.3c0.1,0,0.2,0,0.3,0.1c0.2,0.1,0.5,0.1,0.8,0.2c0.4,0.1,0.9,0.1,1.2,0.4l0,0l0,0
    c0.6,0.1,1.2,0.2,1.7,0.2h0c0.6,0,1-0.1,1.5-0.2c0.1,0,0.4,0,0.5,0c0.2,0,0.3-0.1,0.4-0.1c0.1,0,0.2-0.1,0.3-0.1l0,0l0.1-0.1
    c0.4-0.2,0.7-0.9,0.8-1.1c0-0.1,0-0.1,0-0.2c0-0.1,0-0.2,0.1-0.4C19.2,23.6,19,23.2,18.8,22.7L18.8,22.7z"></path>
  <path data-path="fill" fill="#FFF" d="M44.1,16.1c0,0.1,0,0.3,0.1,0.4c0,0.1,0.1,0.2,0.1,0.2c0,0,0.1,0.1,0.1,0.1c0.1,0.6,0.4,1.1,0.6,1.7
    c0,0,0.2,0.3,0.4,0.5c0.2,0.1,0.6,0.3,0.7,0.3c0.3,0.4,0.6,0.5,1,0.6c0.1,0,0.3,0.1,0.4,0.1c0,0,0.1,0,0.1,0.1
    c0.1,0,0.1,0.1,0.2,0.1c0.1,0,0.2,0.1,0.3,0.2c0.1,0.1,0.2,0.2,0.4,0.2l0,0c0.3,0,0.7,0,1.1,0.1c0.4,0,0.7,0.1,1.1,0.1
    c0.1,0,0.2,0,0.2,0c0.2,0,0.4,0,0.6,0c0.4,0,0.8,0,1.3-0.1c0.4-0.1,0.8-0.3,1.2-0.6c0.1-0.1,0.2-0.1,0.3-0.2c0.3-0.3,0.2-0.7,0.2-1
    c0-0.1,0-0.1,0-0.2c0-0.3-0.2-0.5-0.3-0.7c-0.1-0.2-0.2-0.3-0.2-0.4c-0.1-0.6-0.5-0.7-0.6-0.7l0,0l0,0c-0.3,0.1-0.6,0.2-0.8,0.3
    c-0.4,0.1-0.9,0.3-1.3,0.4c-0.2,0-0.3,0-0.4,0c-0.3,0-0.7-0.1-1-0.2c-0.1-0.1-0.2-0.2-0.2-0.3c-0.1-0.1-0.2-0.2-0.3-0.3l0,0
    c-0.1-0.1-0.2-0.1-0.3-0.2c-0.1-0.1-0.2-0.1-0.3-0.2c-0.2-0.1-0.4-0.5-0.4-0.7c0-0.2-0.3-0.4-0.3-0.4l0,0c-0.1,0-0.2-0.4-0.3-0.5
    c0,0,0-0.1,0-0.1l0.3-0.4c0.2-0.2,0.3-0.4,0.3-0.7c0.1-0.3,0.1-0.6,0.4-0.7c0.3-0.1,0.6-0.1,0.9-0.2c0.6-0.1,1.2-0.2,1.5-0.8
    c0.1-0.2,0.1-0.4,0.1-0.6c0-0.3-0.1-0.4-0.2-0.6l-0.1-0.1c-0.1-0.1-0.2-0.2-0.2-0.2c-0.1-0.1-0.2-0.1-0.2-0.3L50,9.8l0-0.1
    c-0.1-0.2-0.2-0.3-0.4-0.4c-0.2,0-0.4-0.1-0.6-0.1c-0.5,0-1,0.1-1.5,0.2c-0.1,0-0.2,0-0.3,0.1c-0.1,0-0.3,0.1-0.3,0.2l0,0
    c0,0,0,0.1-0.1,0.1c0,0.1-0.1,0.2-0.1,0.2l0,0c-0.5,0.5-0.7,0.7-1.3,1l-0.1,0.1c-0.3,0.2-0.6,0.7-0.7,1c0,0,0,0.1-0.1,0.2
    c-0.1,0.1-0.1,0.3-0.2,0.5c0,0.2,0,0.3,0,0.4c0,0.2,0,0.3-0.1,0.5C44.1,14,44,14.2,44,14.5c0,0-0.1,0.8,0.1,1.1
    C44.1,15.8,44.1,15.9,44.1,16.1z"></path>
  <path data-path="fill" fill="#FFF" d="M44.7,22.1c0.4-0.5,0.2-1.1,0-1.7c0-0.1-0.1-0.3-0.1-0.4l0,0l0,0C44.2,19.6,44,19,44,18.5l0-0.2
    c0-0.5-0.1-0.9-0.4-1.2l-0.1-0.4l-0.2-1L43.1,15L43,13.9l0-0.5c-0.1-0.3-0.1-0.7-0.1-1c0-0.4,0-0.9-0.1-1.3c-0.3-1-1.4-1.4-2.2-1.4
    c-0.1,0-0.2,0-0.2,0c-0.8,0.1-1.3,0.9-1.5,1.3c-0.1,0.2-0.1,0.4-0.1,0.6l0,0c0,0,0,0.1,0,0.1c0,0.1,0.1,0.2,0.1,0.2
    c-0.1,0.1-0.1,0.2-0.1,0.3l0,0c0,0,0.2,0.6,0.2,0.8c0.1,0.2,0.1,0.4,0.1,0.4c0,0.1,0.2,0.4,0.2,0.5c0,0.1,0.1,0.3,0.1,0.4
    c0,0.6,0.2,1.1,0.3,1.7l0,0.1c0,0.1,0,0.2,0.1,0.3c0.1,0.4,0.2,0.7-0.1,0.8c-0.1,0.1-0.2,0.1-0.3,0c-0.2-0.1-0.4-0.3-0.5-0.4l0,0
    c-0.7-0.6-1.2-1.3-1.8-2.1L37,14.5c0,0-0.1-0.1-0.1-0.1c-0.1-0.1-0.2-0.2-0.3-0.3c-0.1-0.1-0.3-0.1-0.4-0.2c-0.2,0-0.4-0.1-0.5-0.2
    c-0.1-0.2-0.2-0.3-0.3-0.5c0-0.1-0.1-0.2-0.1-0.3c-0.2-0.3-0.5-0.4-0.8-0.5c-0.1,0-0.2-0.1-0.3-0.1c-0.1,0-0.1-0.1-0.2-0.2
    c-0.1-0.1-0.1-0.2-0.3-0.3c-0.3-0.1-0.6-0.1-1,0c-0.2,0-0.3,0.2-0.4,0.5c-0.1,0.2-0.3,0.3-0.5,0.4c-0.4,0.3-0.8,0.6-0.6,1.1
    l-0.1,1.1l0.2,0.7c0,0.1,0.2,1.2,0.4,1.4c0.2,0.3,0.2,0.6,0.2,0.7c0,0,0,0.1,0,0.2c0.1,0.5,0.1,0.8,0.1,0.9
    c0.1,0.2,0.7,2.1,0.7,2.5c0,0.3,0.1,0.8,0.2,1.3c0.1,0.2,0.1,0.5,0.1,0.6l0,0.2c0,0.4,0,0.8,0.1,1l0.3,0.7l0.1,0c0.1,0,0.2,0,0.4,0
    c0.2,0,0.5,0.1,0.7,0.1l0,0c0,0,0.1,0,0.1,0c0,0,0.1,0,0.1,0c0.1,0,0.1,0,0.1,0c0.1,0,0.2-0.1,0.3-0.1c0.1,0,0.2-0.1,0.2-0.1l0.1,0
    l0.1-0.3c0-0.1,0.1-0.2,0.1-0.3c0.1-0.2,0.1-0.5,0.3-0.7c0-0.1,0.1-0.3,0.2-0.4c0.1-0.2,0.2-0.4,0.2-0.6l0,0l0-0.2l-0.1-0.3
    L36.2,21l0,0c-0.1-0.1-0.1-0.3,0-0.5c0-0.1,0.2-0.1,0.3-0.1c0,0,0,0,0.1,0c0.2,0.1,0.3,0.2,0.5,0.3c0.2,0.1,0.4,0.2,0.6,0.3
    c0.1,0,0.2,0.1,0.3,0.1c0.1,0,0.2,0.1,0.3,0.1c0.1,0.1,0.3,0.2,0.4,0.3l0.6,0.3l0,0c0.1,0,0.3,0.1,0.5,0.2c0.2,0.1,0.4,0.2,0.5,0.2
    c0,0,0,0,0.1,0c0.1,0,0.1,0,0.2,0c0.1,0,0.1,0,0.2,0c0.1,0,0.2,0,0.3,0c0.1,0,0.1,0.1,0.2,0.1c0.1,0,0.2,0.1,0.2,0.2
    c0.1,0.1,0.1,0.2,0.2,0.3c0.1,0.1,0.2,0.3,0.2,0.4l0,0l0,0c0,0,0.7,0.3,1.1,0.3c0.1,0,0.1,0,0.1,0c0,0,0.1,0,0.1,0
    c0.2,0,0.3-0.1,0.5-0.1c0.1,0,0.2-0.1,0.3-0.1l0,0l0,0c0.1-0.1,0.1-0.1,0.1-0.2c0,0,0-0.1,0-0.1c0.1-0.1,0.2-0.2,0.3-0.4
    c0.1-0.1,0.1-0.2,0.2-0.3L44.7,22.1L44.7,22.1z"></path>
  <path data-path="fill" fill="#FFF" d="M57.1,21.5c0.1,0.1,0.2,0.1,0.3,0.1c0,0,0.1,0,0.1,0c0.1,0.1,0.2,0.1,0.3,0.2c0.2,0.1,0.5,0.3,0.7,0.4
    c0.5,0.1,1,0.2,1.5,0.2c0.1,0,0.3,0,0.4,0c0.1,0,0.3,0,0.4,0c0.2,0,0.4,0,0.6,0l0,0l0.7-0.1c0,0,0.1,0,0.1,0c0.1,0,0.2,0,0.3-0.1
    c0.1,0,0.1,0,0.2,0c0.1,0,0.2,0,0.3,0c0.1,0,0.3,0,0.4,0c0.8-0.1,1.7-0.7,1.6-1.6c0-0.2,0-0.4-0.1-0.5c0-0.3-0.1-0.6,0-0.9
    c0.2-0.4,0.1-0.9-0.3-1.1c-0.3-0.2-0.6-0.4-1-0.4c-0.3,0-0.7,0.1-1,0.3c0,0-0.1,0-0.1,0c-0.1,0-0.2,0-0.3,0.1
    c-0.3,0.2-0.7,0.4-1.2,0.4c-0.2,0-0.4,0-0.7,0c-0.1,0-0.1,0-0.2,0c-0.1,0-0.2,0-0.3,0c-0.1,0-0.2,0-0.3,0h0c-0.1,0-0.2-0.1-0.3-0.1
    c0,0,0,0-0.1-0.1l-0.1-0.4c0,0,0-0.1-0.1-0.1c0,0,0-0.1,0,0l0,0c0.1-0.4,0.5-0.9,0.8-1c0.4-0.1,0.9-0.2,1.3-0.3
    c0.2,0,0.4-0.1,0.7-0.1c0.2-0.1,0.4-0.1,0.6-0.2c0.3-0.1,0.5-0.2,0.8-0.2c0.1,0,0.2,0,0.3,0c0.1,0,0.2,0,0.2,0c0.1,0,0.3,0,0.4-0.1
    c0.3-0.2,0.5-0.3,0.6-0.4c0.1-0.1,0.3-0.2,0.6-0.3l0,0l0-0.1c0,0,0-0.7,0-0.8c0-0.1,0-0.4,0-0.4l0,0l0,0c-0.1-0.5-0.5-0.9-0.9-1
    c-0.4-0.1-0.7-0.2-1.1-0.4c-0.1,0-0.2,0-0.3,0.1c0,0-0.1,0-0.1,0l0,0c-0.2,0.1-0.3,0.2-0.4,0.3c-0.1,0.1-0.2,0.2-0.4,0.3
    c-0.1,0-0.2,0-0.3,0c-0.1,0-0.2,0-0.3,0c-0.1,0-0.2,0-0.2,0c-0.2,0-0.4,0.1-0.6,0c-0.3-0.1-0.7,0-1.1,0.2c-0.4,0.2-1,0.2-1.6,0
    c-0.3-0.1-0.4-0.7-0.4-1c0-0.1,0.1-0.3,0.3-0.4c0.1-0.1,0.2-0.1,0.4-0.1c0.1,0,0.2,0,0.3-0.1c0.2-0.1,0.4-0.1,0.6,0
    c0.1,0,0.2,0,0.3,0c0,0,0,0,0,0l0,0c0,0,0.1,0,0.1,0c0.1,0,0.1,0,0.2-0.1c0.3-0.2,0.7-0.3,1.2-0.3c0.3,0,0.5,0,0.8,0.1
    c0.3,0,0.5,0.1,0.8,0.1l0,0c0.3,0,0.6-0.2,0.9-0.3l0,0c0.3-0.2,0.4-0.5,0.5-0.8c0.1-0.2,0.1-0.4,0.3-0.6l0,0l0,0
    c0-0.2-0.1-0.4-0.1-0.6c-0.1-0.3-0.1-0.6-0.2-1c-0.1-0.1-0.2-0.2-0.3-0.2l0,0c-0.1,0-0.2,0-0.3-0.1c-0.1,0-0.2-0.1-0.3-0.2
    C62.9,7.2,62.7,7,62.5,7c-0.3,0-0.5,0.1-0.8,0.2c-0.2,0.1-0.3,0.2-0.5,0.2l-0.7,0.1c0,0-0.1,0-0.1,0c-0.1,0-0.2,0.1-0.3,0.1
    c0,0,0,0-0.1,0c-0.1,0-0.2,0-0.4-0.1c-0.2-0.1-0.5-0.1-0.7,0c-0.2,0.1-0.5,0-0.8,0c-0.3,0-0.6-0.1-0.8,0c0,0-0.1,0-0.1,0
    c0,0-0.1,0-0.1,0l-1.6,0.3c-0.1,0-0.2,0-0.2,0.1C55,7.9,54.9,8,54.9,8l-0.5,0.4L54,8.9l-0.2,0.4L53.7,10l-0.1,0.6
    c-0.1,0.2,0.1,0.4,0.2,0.6l0,0.1l0.1,0.4c0,0,0,0.1,0,0.2c0,0.1,0,0.1,0,0.2c0,0.1,0,0.1,0,0.2c0,0.2,0.1,0.5,0.2,0.7
    c0.1,0.1,0,0.4,0,0.6l0,0.1l0,0c0,0.2,0.1,0.3,0.1,0.5c0,0.1,0.1,0.2,0.1,0.3l0,0.4c0,0.2,0.1,0.5,0,0.8c0,0.2,0,0.8,0.1,0.9
    c0,0.1,0.1,0.5,0.1,0.7l0.3,0.7l0.1,0.6l0.2,1.2l0.1,0c0.2,0.1,0.3,0.2,0.3,0.4c0.1,0.2,0.1,0.3,0.3,0.4c0.1,0.1,0.2,0.1,0.3,0.2
    C56.6,21,56.9,21.2,57.1,21.5z"></path>
  <polygon data-path="fill" fill="#FFF" points="41.8,30 42.3,30 41.9,31.5 40.9,28.7 39.4,28.7 38.5,31.5 38,30 38.5,30 38.5,28.7 35.6,28.7
    35.6,30 36.3,30 37.6,34 39.1,34 40,31.2 40.9,34 42.4,34 43.7,30 44.4,30 44.4,28.7 41.8,28.7   "></polygon>
  <path data-path="fill" fill="#FFF" d="M47.3,28.6c-1.4,0-2.7,0.8-2.7,2.7c0,1.6,1.1,2.7,2.7,2.7c1.6,0,2.7-1.1,2.7-2.7
    C50.1,29.6,49,28.6,47.3,28.6z M47.3,32.6c-0.6,0-0.9-0.5-0.9-1.3c0-0.5,0.1-1.3,0.9-1.3c0.6,0,0.9,0.5,0.9,1.3
    C48.2,31.7,48.1,32.6,47.3,32.6z"></path>
  <path data-path="fill" fill="#FFF" d="M53.2,29.6v-0.9h-2.5V30h0.8v2.5h-0.9v1.4h3.7v-1.4h-1v-0.4c0-1.2,0.5-1.8,1.5-1.8h0.3v-1.7h-0.3
    C54.1,28.6,53.6,28.9,53.2,29.6z"></path>
  <polygon data-path="fill" fill="#FFF" points="58.5,26.5 55.9,26.5 55.9,27.8 56.7,27.8 56.7,32.5 55.9,32.5 55.9,33.9 59.3,33.9 59.3,32.5
    58.5,32.5   "></polygon>
  <path data-path="fill" fill="#FFF" d="M65.4,26.5h-2.6v1.4h0.8v1.2c-0.4-0.3-0.8-0.5-1.3-0.5c-1.3,0-2.3,1.2-2.3,2.7c0,1.5,1,2.7,2.3,2.7
    c0.5,0,0.9-0.2,1.3-0.5v0.5h2.6v-1.4h-0.8V26.5z M63.6,31.2c0,0.9-0.5,1.3-0.9,1.3c-0.5,0-0.9-0.5-0.9-1.2c0-0.8,0.3-1.2,0.9-1.2
    C63.3,30.1,63.6,30.5,63.6,31.2z"></path>
  <polygon data-path="fill" fill="#FFF" points="72.9,30 73.4,30 73,31.5 72,28.7 70.6,28.7 69.6,31.5 69.1,30 69.6,30 69.6,28.7 66.7,28.7
    66.7,30 67.4,30 68.7,34 70.2,34 71.1,31.2 72.1,34 73.6,34 74.9,30 75.5,30 75.5,28.7 72.9,28.7   "></polygon>
  <path data-path="fill" fill="#FFF" d="M77.1,27.3c0,0.5,0.4,1,1,1c0.5,0,1-0.4,1-1c0-0.5-0.4-1-1-1C77.6,26.4,77.1,26.8,77.1,27.3z"></path>
  <polygon data-path="fill" fill="#FFF" points="79,28.7 76.4,28.7 76.4,30 77.2,30 77.2,32.5 76.4,32.5 76.4,33.9 79.7,33.9 79.7,32.5 79,32.5
    "></polygon>
  <path data-path="fill" fill="#FFF" d="M85.6,26.5H83v1.4h0.8v1.2c-0.4-0.3-0.8-0.5-1.3-0.5c-1.3,0-2.3,1.2-2.3,2.7c0,1.5,1,2.7,2.3,2.7
    c0.5,0,0.9-0.2,1.3-0.5v0.5h2.6v-1.4h-0.8V26.5z M83.8,31.2c0,0.9-0.5,1.3-0.9,1.3c-0.5,0-0.9-0.5-0.9-1.2c0-0.8,0.3-1.2,0.9-1.2
    C83.4,30.1,83.8,30.5,83.8,31.2z"></path>
  <path data-path="fill" fill="#FFF" d="M90.7,32.2c-0.4,0.4-0.7,0.6-1.1,0.6c-0.8,0-1.1-0.5-1.1-1h3.7l0-0.1c0.1-0.9-0.2-1.7-0.7-2.2
    c-0.5-0.5-1.2-0.8-2-0.8c-1.6,0-2.8,1.2-2.8,2.8c0,1.6,1.1,2.6,2.9,2.6c1.1,0,2-0.4,2.5-1.3l0.1-0.1L90.7,32.2L90.7,32.2z
     M89.4,29.8c0.5,0,0.8,0.3,0.9,0.8h-1.8C88.6,30.1,88.9,29.8,89.4,29.8z"></path>
  <path data-path="fill" fill="#FFF" d="M77,18.8c0.1,0,0.3,0,0.4,0c0.3,0,0.5,0,0.7,0l0.4,0c0.1,0,0.2,0,0.2,0c0.2,0,0.4-0.1,0.6-0.2l0.1-0.1
    l0-0.1c0,0,0,0,0-0.1l0,0c0-0.2,0.1-0.4,0.2-0.5c0.2-0.4,0-1-0.2-1.2c0-0.1-0.1-0.1-0.1-0.2c-0.1-0.1-0.1-0.2-0.2-0.4
    C79,16.1,79,16,79,15.9c0-0.1,0-0.2-0.1-0.2c-0.1-0.1-0.1-0.2-0.2-0.3c0,0,0-0.1-0.1-0.1c0-0.1-0.1-0.1-0.1-0.2c0,0,0,0-0.1-0.1
    l0,0c0,0-0.1-0.1-0.2-0.1h0c-0.3,0-0.5-0.1-0.8-0.3c-0.1-0.1-0.3-0.1-0.4-0.2c-0.7-0.3-1.4-0.7-1.9-1.3l0,0c0,0,0-0.1,0.1-0.2
    c0.2-0.2,0.4-0.2,0.6-0.3c0.3-0.1,0.6-0.2,0.8-0.5c0.2-0.3,0.5-0.6,0.7-0.8c0.2-0.3,0.5-0.5,0.7-0.8c0.1-0.1,0.1-0.2,0.1-0.3
    c0-0.1,0.1-0.2,0.1-0.3l0,0l0,0l0-0.1l0,0c0-0.1,0-0.2,0-0.4c0-0.1,0-0.2,0-0.2c0-0.3,0-0.5-0.1-0.7c0-0.1,0-0.3,0-0.4
    c0-0.1,0-0.2,0-0.3c0-0.1-0.1-0.3-0.1-0.4c0-0.1-0.1-0.1-0.1-0.2c0,0,0-0.1,0-0.1c0-0.1,0-0.1,0-0.2l0,0l0,0c0,0-0.1-0.1-0.1-0.1
    c-0.1-0.1-0.1-0.2-0.2-0.2c0,0-0.1,0-0.1-0.1c-0.1-0.1-0.2-0.1-0.3-0.1c-0.1,0-0.2-0.1-0.3-0.1c-0.1,0-0.2,0-0.3-0.1
    C76.3,6,76.1,5.9,76,5.9c-0.3-0.1-0.5-0.3-0.8-0.3c-0.2,0-0.4,0-0.7,0c-0.3,0-0.5,0-0.8-0.1c-0.2-0.1-0.4-0.1-0.6-0.2
    c-0.1,0-0.2,0-0.3-0.1c-0.1,0-0.3-0.1-0.4,0l0,0c-0.1,0.1-0.2,0.1-0.3,0.2c-0.4,0.1-0.7,0.1-1,0.1c-0.1,0-0.2,0-0.2,0
    c-0.2,0-0.3,0-0.5,0c-0.5,0.1-1,0.2-1.6,0.5c-0.2,0.1-0.4,0.2-0.5,0.2c-0.3,0.1-0.6,0.2-0.9,0.4c0,0,0,0-0.1,0
    c-0.1,0.1-0.2,0.1-0.3,0.3l-0.2,0.7l-0.2,0.8c-0.1,0.1-0.1,0.3-0.2,0.4c0,0.1-0.1,0.3-0.2,0.4c-0.2,0.4-0.2,0.9-0.2,1.3
    c0,0.1,0.1,0.2,0.2,0.3c0,0,0,0,0,0.1c0,0,0,0,0,0c0,0.1,0,0.3-0.1,0.4c0,0.1-0.1,0.3-0.1,0.4c0,0.2,0.1,0.5,0.1,0.8
    c0.1,0.4,0.2,0.8,0.1,1.1l0,1.2l0,0c0.1,0.2,0.1,0.4,0.1,0.6c0,0.2,0,0.3,0.1,0.5c0.1,0.2,0,0.4,0,0.6c0,0.3,0,0.5,0.1,0.8
    c0,0.1,0.1,0.1,0.1,0.2c0,0,0,0.1,0,0.1c0,0.2,0,0.3,0,0.5c0,0.3,0,0.6,0.1,0.9c0,0.1,0.1,0.2,0.1,0.4c0.1,0.2,0.1,0.3,0.2,0.5
    c0,0.1,0,0.2,0,0.3c0,0.2,0,0.4,0.1,0.6c0.1,0.2,0.3,0.4,0.5,0.6c0,0,0.1,0.1,0.1,0.1c0.1,0.1,0.2,0.1,0.4,0.1c0.1,0,0.2,0,0.2,0
    l0.2,0c0.6,0,1.2-0.1,1.8-0.4c0.1-0.1,0.3-0.2,0.2-0.4l0-0.4c0-0.1,0.1-0.3,0.1-0.4c0-0.2,0.1-0.3,0.1-0.5c0.1-0.5,0.1-0.9,0.1-1.4
    c0,0,0-0.1-0.1-0.1c0,0,0,0,0,0c-0.1-0.4-0.2-0.8,0-1.2c0.6-0.2,1.3-0.1,2.2,0.2c0.4,0.2,0.7,0.4,1.1,0.7c0.3,0.2,0.7,0.4,1.1,0.5
    c0.5,0.2,1,0.4,1.3,0.8l0,0l0.1,0C76.7,18.8,76.8,18.8,77,18.8z M69.7,11.6c-0.2-0.2-0.2-0.8-0.2-1.2l0-0.7l0,0
    c0.1-0.2,0.1-0.3,0.3-0.4c0.2-0.1,0.4-0.2,0.6-0.3c0.3-0.2,0.6-0.3,1-0.4c0.2-0.1,0.5,0,0.9,0.1c0.1,0,0.1,0,0.2,0
    c0.3,0.1,0.6,0,0.9,0c0.3,0,0.6-0.1,0.8,0c0.1,0,0.1,0.1,0.1,0.2c0,0,0,0.1,0,0.1l0.1,0.7c-0.3,0.6-0.9,1-1.5,1c-0.1,0-0.2,0-0.2,0
    c-0.2,0-0.5,0.1-0.7,0.3c-0.3,0.3-0.7,0.4-1.1,0.6l-0.3,0.1c-0.1,0-0.2,0-0.4,0l-0.2,0C69.8,11.7,69.7,11.7,69.7,11.6z"></path>
</g>
</svg>